<svg xmlns="http://www.w3.org/2000/svg" xmlns:xlink="http://www.w3.org/1999/xlink" width="1000" zoomAndPan="magnify" viewBox="0 0 750 225" height="300" preserveAspectRatio="xMidYMid meet" version="1.0"><defs><g/><clipPath id="549ab9fc02"><path d="M 88.5625 35 L 273.8125 35 L 273.8125 201.828125 L 88.5625 201.828125 Z M 88.5625 35 " clip-rule="nonzero"/></clipPath><clipPath id="b7317d0e2b"><path d="M 238 76 L 273.8125 76 L 273.8125 201.828125 L 238 201.828125 Z M 238 76 " clip-rule="nonzero"/></clipPath></defs><g clip-path="url(#549ab9fc02)"><path fill="#485eff" d="M 273.800781 58.09375 C 273.800781 39.222656 252.121094 28.621094 237.265625 40.230469 L 124.230469 128.550781 L 124.230469 85.464844 L 140.582031 98.414062 L 169.609375 75.84375 L 125.195312 40.691406 C 110.363281 28.949219 88.550781 39.53125 88.550781 58.464844 L 88.550781 201.796875 L 273.800781 58.09375 " fill-opacity="1" fill-rule="nonzero"/></g><g clip-path="url(#b7317d0e2b)"><path fill="#000000" d="M 238.117188 103.6875 L 238.117188 183.925781 C 238.117188 193.796875 246.105469 201.796875 255.957031 201.796875 C 265.8125 201.796875 273.800781 193.796875 273.800781 183.925781 L 273.800781 76.335938 L 238.117188 103.6875 " fill-opacity="1" fill-rule="nonzero"/></g><g fill="#000000" fill-opacity="1"><g transform="translate(271.738522, 198.96555)"><g><path d="M 51.796875 -104.660156 C 40 -104.660156 27.230469 -102.441406 15.789062 -98.804688 C 13.660156 -98.097656 12.683594 -96.675781 13.480469 -94.28125 L 19.601562 -75.035156 C 20.3125 -72.640625 22.171875 -72.109375 24.300781 -72.996094 C 32.726562 -76.453125 41.597656 -78.671875 49.046875 -78.671875 C 59.25 -78.671875 66.699219 -74.679688 66.699219 -64.125 L 66.699219 -60.136719 C 60.3125 -61.996094 53.925781 -62.882812 47.804688 -62.882812 C 26.164062 -62.882812 8.160156 -51.796875 8.160156 -30.511719 C 8.160156 -9.222656 25.277344 2.21875 43.636719 2.21875 C 53.75 2.21875 64.304688 -1.332031 72.109375 -11.265625 L 75.035156 -3.105469 C 75.566406 -1.0625 76.988281 0 79.027344 0 L 96.058594 0 C 98.453125 0 99.691406 -1.242188 99.691406 -3.636719 L 99.691406 -64.835938 C 99.691406 -94.28125 77.519531 -104.660156 51.796875 -104.660156 Z M 53.21875 -20.132812 C 47.007812 -20.132812 41.242188 -23.414062 41.242188 -30.6875 C 41.242188 -38.671875 48.160156 -41.773438 56.320312 -41.773438 C 59.78125 -41.773438 63.238281 -41.242188 66.699219 -40.355469 L 66.699219 -35.035156 C 66.699219 -23.59375 59.070312 -20.132812 53.21875 -20.132812 Z M 53.21875 -20.132812 "/></g></g></g><g fill="#000000" fill-opacity="1"><g transform="translate(372.150206, 198.96555)"><g><path d="M 41.953125 0 C 44.347656 0 45.589844 -1.242188 45.589844 -3.636719 L 45.589844 -55.964844 C 45.589844 -68.648438 50.46875 -75.390625 61.554688 -75.390625 C 63.949219 -75.390625 67.585938 -75.035156 71.398438 -74.148438 C 73.707031 -73.527344 75.390625 -74.503906 75.921875 -76.632812 L 81.597656 -98.453125 C 82.132812 -100.667969 81.421875 -102.265625 79.382812 -102.976562 C 75.921875 -104.128906 72.464844 -104.660156 69.714844 -104.660156 C 59.957031 -104.660156 48.871094 -100.667969 40.710938 -89.582031 L 37.074219 -99.339844 C 36.363281 -101.378906 35.035156 -102.441406 33.082031 -102.441406 L 15.964844 -102.441406 C 13.660156 -102.441406 12.328125 -101.199219 12.328125 -98.804688 L 12.507812 -3.636719 C 12.507812 -1.242188 13.835938 0 16.140625 0 Z M 41.953125 0 "/></g></g></g><g fill="#000000" fill-opacity="1"><g transform="translate(447.37382, 198.96555)"><g><path d="M 59.957031 2.21875 C 89.757812 2.21875 109.183594 -15.433594 109.183594 -44.703125 L 109.183594 -98.804688 C 109.183594 -101.199219 107.941406 -102.441406 105.546875 -102.441406 L 79.738281 -102.441406 C 77.34375 -102.441406 76.101562 -101.199219 76.101562 -98.804688 L 76.101562 -46.121094 C 76.101562 -36.542969 71.753906 -26.875 59.957031 -26.875 C 48.515625 -26.875 43.816406 -35.390625 43.816406 -46.121094 L 43.816406 -98.804688 C 43.816406 -101.199219 42.484375 -102.441406 40.179688 -102.441406 L 14.367188 -102.441406 C 11.972656 -102.441406 10.730469 -101.199219 10.730469 -98.804688 L 10.730469 -44.703125 C 10.730469 -15.433594 30.15625 2.21875 59.957031 2.21875 Z M 59.957031 2.21875 "/></g></g></g><g fill="#000000" fill-opacity="1"><g transform="translate(556.743219, 198.96555)"><g><path d="M 72.464844 -137.476562 C 67.941406 -138.007812 63.59375 -138.453125 59.601562 -138.453125 C 34.945312 -138.453125 19.601562 -127.453125 17.648438 -102.441406 L 11.085938 -102.441406 C 8.691406 -102.441406 7.449219 -101.199219 7.449219 -98.804688 L 7.449219 -80.625 C 7.449219 -78.316406 8.691406 -76.988281 11.085938 -76.988281 L 17.472656 -76.988281 L 17.472656 -3.636719 C 17.472656 -1.242188 18.714844 0 21.109375 0 L 46.832031 0 C 49.226562 0 50.46875 -1.242188 50.46875 -3.636719 L 50.46875 -76.988281 L 63.417969 -76.988281 C 65.722656 -76.988281 67.054688 -78.316406 67.054688 -80.625 L 67.054688 -98.804688 C 67.054688 -101.199219 65.722656 -102.441406 63.417969 -102.441406 L 50.46875 -102.441406 L 50.46875 -104.304688 C 50.46875 -110.957031 55.613281 -113.707031 62.707031 -113.707031 C 64.480469 -113.707031 66.519531 -113.53125 68.472656 -113.175781 C 70.511719 -112.996094 71.929688 -113.882812 72.285156 -116.277344 L 75.390625 -133.308594 C 75.746094 -135.703125 74.859375 -137.121094 72.464844 -137.476562 Z M 72.464844 -137.476562 "/></g></g></g><g fill="#485eff" fill-opacity="1"><g transform="translate(615.857086, 198.114854)"><g><path d="M 24.808594 1.699219 C 33.238281 1.699219 40.375 -5.03125 40.375 -13.933594 C 40.375 -22.429688 33.578125 -29.5 24.808594 -29.5 C 16.175781 -29.5 9.175781 -22.292969 9.175781 -13.933594 C 9.175781 -5.300781 16.3125 1.699219 24.808594 1.699219 Z M 24.808594 1.699219 "/></g></g></g></svg>